<?xml version="1.0" encoding="iso-8859-1"?>
<!-- Uploaded to: SVG Repo, www.svgrepo.com, Generator: SVG Repo Mixer Tools -->
<svg fill="#000000" height="800px" width="800px" version="1.1" id="Layer_1" xmlns="http://www.w3.org/2000/svg" xmlns:xlink="http://www.w3.org/1999/xlink" 
	 viewBox="0 0 512.393 512.393" xml:space="preserve">
<g transform="translate(-1)">
	<g>
		<g>
			<path d="M205.979,278.571l62.571-13.419c11.52-2.471,18.856-13.812,16.386-25.332s-13.812-18.856-25.332-16.386l-62.571,13.419
				c-11.52,2.471-18.856,13.812-16.386,25.332C183.117,273.706,194.459,281.042,205.979,278.571z"/>
			<path d="M384.783,196.624l-41.728,8.939c-11.521,2.468-18.859,13.808-16.392,25.329c2.468,11.521,13.808,18.859,25.329,16.392
				l41.728-8.939c11.521-2.468,18.859-13.808,16.392-25.329C407.644,201.495,396.304,194.156,384.783,196.624z"/>
			<path d="M398.18,259.202L335.61,272.62c-11.52,2.471-18.856,13.812-16.386,25.332s13.812,18.856,25.332,16.386l62.571-13.419
				c11.52-2.471,18.856-13.812,16.386-25.332C421.042,264.067,409.7,256.731,398.18,259.202z"/>
			<path d="M219.376,341.149l41.728-8.939c11.521-2.468,18.859-13.808,16.392-25.329c-2.468-11.521-13.808-18.859-25.329-16.392
				l-41.728,8.939c-11.521,2.468-18.859,13.808-16.392,25.329C196.515,336.278,207.855,343.617,219.376,341.149z"/>
			<path d="M411.585,321.782l-20.864,4.48c-11.519,2.474-18.853,13.817-16.379,25.337c2.474,11.519,13.817,18.853,25.337,16.379
				l20.864-4.48c11.52-2.474,18.853-13.817,16.379-25.337C434.448,326.642,423.104,319.309,411.585,321.782z"/>
			<path d="M307.295,344.131l-83.435,17.877c-11.521,2.468-18.859,13.809-16.39,25.329c2.469,11.521,13.809,18.859,25.329,16.39
				l83.435-17.877c11.521-2.468,18.859-13.809,16.39-25.329C330.156,349.001,318.816,341.663,307.295,344.131z"/>
			<path d="M512.915,387.339L445.864,74.443c-2.469-11.52-13.807-18.857-25.327-16.39l-35.81,7.669
				c-4.434-31.023-31.089-54.862-63.34-54.862c-35.355,0-64,28.645-64,64c0,6.115,0.875,12.021,2.475,17.621l-17.647,3.782
				L68.392,73.67c-11.701-1.521-22.414,6.745-23.911,18.449L1.175,430.7c-1.493,11.67,6.744,22.345,18.41,23.862l143.84,18.702
				c4.945,5.392,12.533,8.099,20.204,6.456l11.127-2.384l184.67,24.017c11.683,1.519,22.386-6.719,23.906-18.402l6.736-51.755
				l86.456-18.527C508.046,410.2,515.384,398.86,512.915,387.339z M321.386,53.526c11.791,0,21.333,9.542,21.333,21.333
				c0,2.729-0.531,5.329-1.463,7.727c-0.219,0.399-0.428,0.804-0.622,1.218c-2.421,5.177-6.681,9.087-11.803,11.028
				c-0.01,0.004-0.02,0.007-0.03,0.011c-0.753,0.284-1.529,0.514-2.316,0.711c-0.188,0.046-0.372,0.103-0.562,0.144
				c-0.257,0.057-0.52,0.096-0.78,0.143c-0.397,0.07-0.796,0.135-1.2,0.183c-0.214,0.026-0.429,0.051-0.645,0.071
				c-0.631,0.056-1.267,0.096-1.912,0.096c-0.008,0-0.016-0.001-0.024-0.001c-0.654-0.001-1.298-0.039-1.937-0.098
				c-1.137-0.11-2.255-0.321-3.35-0.62c-0.163-0.056-0.329-0.092-0.492-0.144c-2.863-0.86-5.559-2.348-7.972-4.43
				c-0.496-0.428-1.013-0.823-1.54-1.2c-3.721-3.839-6.02-9.065-6.02-14.841C300.053,63.069,309.595,53.526,321.386,53.526z
				 M84.091,118.736l33.144,4.308l-9.6,2.058c-11.52,2.469-18.857,13.81-16.388,25.33l17.706,82.617l41.906,195.555l-104.66-13.608
				L84.091,118.736z M363.776,456.291l-44.07-5.732l46.102-9.879L363.776,456.291z M386.582,392.593
				c-0.064,0.013-0.128,0.021-0.192,0.035l-190.837,40.9L151.41,227.555l-13.972-65.202l140.547-30.121l-18.633,40.35
				c-4.94,10.697-0.273,23.372,10.424,28.312c10.697,4.94,23.372,0.273,28.312-10.424l23.837-51.619
				c0.798-0.007,1.594-0.03,2.386-0.066c0.21-0.009,0.419-0.018,0.628-0.029c0.891-0.049,1.778-0.116,2.661-0.202
				c0.295-0.028,0.587-0.063,0.881-0.095c0.654-0.073,1.305-0.155,1.953-0.248c0.547-0.077,1.091-0.164,1.634-0.256
				c0.451-0.076,0.902-0.155,1.35-0.241c16.59-3.155,30.898-12.706,40.279-25.996l34.918-7.478l58.111,271.179L386.582,392.593z"/>
		</g>
	</g>
</g>
</svg>